<svg width="66" height="91" viewBox="0 0 66 91" fill="none" xmlns="http://www.w3.org/2000/svg">
<g filter="url(#filter0_d_59_914)">
<path d="M32.9767 1C17.5212 1 5 13.8376 5 29.3454C5 44.8443 24.6234 81.2 32.9767 81.2C41.3301 81.2 60.9535 44.8443 60.9535 29.3454C60.9535 13.8376 48.4234 1 32.9767 1Z" fill="#FFA500"/>
<path d="M32.9767 1C17.5212 1 5 13.8376 5 29.3454C5 44.8443 24.6234 81.2 32.9767 81.2C41.3301 81.2 60.9535 44.8443 60.9535 29.3454C60.9535 13.8376 48.4234 1 32.9767 1Z" stroke="white" stroke-width="2"/>
</g>
<path d="M10 29C10 41.7025 20.2975 52 33 52C45.7025 52 56 41.7025 56 29C56 16.2975 45.7025 6 33 6C20.2975 6 10 16.2975 10 29Z" fill="white"/>
<path d="M35.6435 30.5972L43.2577 25.9008C43.6141 25.6809 43.7877 25.1516 43.6402 24.7398L42.1323 20.5372C42.0875 20.4105 42.1118 20.2539 42.192 20.1365L45.9991 14.7245C46.2119 14.4207 45.9879 14.0144 45.7024 14.184L37.9371 18.7649C37.6291 18.9755 37.4631 19.4228 37.5526 19.8104L38.4372 23.6737C38.4988 23.944 38.4372 24.2552 38.2767 24.4919L34.9381 29.3616C34.451 30.0717 34.9847 31.0054 35.6454 30.5972H35.6435ZM42.9572 35.5732C44.0564 35.0234 45.3142 35.001 46.406 35.5135C47.1524 35.8639 48.0408 35.5452 48.3935 34.7998C48.7443 34.0543 48.4252 33.1672 47.6787 32.8168C45.7528 31.9111 43.5451 31.9446 41.621 32.9081C39.9451 33.7468 38.6761 35.206 38.0192 37.0026L29.4924 37.051L24.5264 31.749C24.4761 31.6949 24.4201 31.6465 24.3622 31.6017L28.2477 17.151L30.7745 17.2069C31.5975 17.2236 32.2824 16.5732 32.3011 15.7495C32.3198 14.9258 31.6666 14.2437 30.8417 14.225L27.1447 14.143C26.4561 14.1318 25.8477 14.5828 25.6704 15.2463L20.0363 36.2012C20.0363 36.2012 20.0345 36.2143 20.0326 36.2199C18.3008 36.6038 17 38.1469 17 39.99C17 42.1202 18.7356 43.8552 20.8705 43.8552C23.0055 43.8552 24.7411 42.122 24.7411 39.99C24.7411 38.637 24.0394 37.4443 22.9812 36.7547L23.4608 34.9693L27.7625 39.5614C28.0443 39.8633 28.4399 40.0348 28.8523 40.0348H28.8598L38.7507 39.9788C38.8534 39.9788 38.9542 39.9677 39.0512 39.9472C39.0867 39.949 39.1203 39.9528 39.1557 39.9528C39.8574 39.9528 40.4733 39.4608 40.617 38.76C40.9081 37.3362 41.7628 36.1733 42.9647 35.5732H42.9572ZM20.8649 41.9916C19.7601 41.9916 18.8606 41.0933 18.8606 39.99C18.8606 38.8867 19.7601 37.9885 20.8649 37.9885C20.9079 37.9885 20.9508 37.9922 20.9918 37.9941C21.0236 38.0052 21.0534 38.0164 21.087 38.0239C21.2065 38.0556 21.3278 38.0705 21.4453 38.0742C22.2683 38.3239 22.8692 39.0862 22.8692 39.9882C22.8692 41.0914 21.9697 41.9897 20.8649 41.9897V41.9916ZM45.1295 36.1267C42.9964 36.1267 41.2589 37.8599 41.2589 39.9919C41.2589 42.1239 42.9945 43.8571 45.1295 43.8571C47.2644 43.8571 49 42.1239 49 39.9919C49 37.8599 47.2644 36.1267 45.1295 36.1267ZM45.1295 41.9916C44.0247 41.9916 43.1252 41.0933 43.1252 39.99C43.1252 38.8867 44.0247 37.9885 45.1295 37.9885C46.2343 37.9885 47.1338 38.8867 47.1338 39.99C47.1338 41.0933 46.2343 41.9916 45.1295 41.9916Z" fill="#FFA500"/>
<defs>
<filter id="filter0_d_59_914" x="0" y="0" width="65.9536" height="90.2" filterUnits="userSpaceOnUse" color-interpolation-filters="sRGB">
<feFlood flood-opacity="0" result="BackgroundImageFix"/>
<feColorMatrix in="SourceAlpha" type="matrix" values="0 0 0 0 0 0 0 0 0 0 0 0 0 0 0 0 0 0 127 0" result="hardAlpha"/>
<feOffset dy="4"/>
<feGaussianBlur stdDeviation="2"/>
<feComposite in2="hardAlpha" operator="out"/>
<feColorMatrix type="matrix" values="0 0 0 0 0 0 0 0 0 0 0 0 0 0 0 0 0 0 0.25 0"/>
<feBlend mode="normal" in2="BackgroundImageFix" result="effect1_dropShadow_59_914"/>
<feBlend mode="normal" in="SourceGraphic" in2="effect1_dropShadow_59_914" result="shape"/>
</filter>
</defs>
</svg>
